<svg xmlns="http://www.w3.org/2000/svg" viewBox="0 0 640 360"><defs><linearGradient id="bg" y2="1"><stop stop-color="#fff9f1"/><stop offset="1" stop-color="#dfd0bb"/></linearGradient><linearGradient id="g" y2="1"><stop stop-color="#9b4a89"/><stop offset="1" stop-color="#4a285c"/></linearGradient></defs><rect width="640" height="360" fill="url(#bg)"/><ellipse cx="320" cy="306" rx="106" ry="17" fill="#46343a" opacity=".15"/><path d="M278 82h84l-10 28 16 164q2 23-21 23h-54q-23 0-21-23l16-164z" fill="#fff" fill-opacity=".3" stroke="#fff" stroke-width="7"/><path d="M285 166h70l8 108q1 19-18 19h-49q-19 0-18-19z" fill="url(#g)"/><rect x="294" y="63" width="52" height="24" rx="5" fill="#d2b77b"/><path d="M334 80q30-26 42-4-21 4-42 4z" fill="#71864c"/><circle cx="267" cy="140" r="18" fill="#7f376f"/><circle cx="292" cy="125" r="18" fill="#8d4382"/><circle cx="317" cy="141" r="18" fill="#74356d"/><circle cx="282" cy="163" r="18" fill="#884079"/><circle cx="307" cy="174" r="17" fill="#6e3167"/><path d="M298 183v53" stroke="#fff" stroke-width="5" opacity=".5" stroke-linecap="round"/></svg>
